<?xml version="1.0" standalone="no"?>
<!DOCTYPE svg PUBLIC "-//W3C//DTD SVG 1.1//EN" "http://www.w3.org/Graphics/SVG/1.1/DTD/svg11.dtd" >
<svg xmlns="http://www.w3.org/2000/svg">
<metadata>Generated by IcoMoon</metadata>
<defs>
<font id="icomoon" horiz-adv-x="1024">
<font-face units-per-em="1024" ascent="960" descent="-64" />
<missing-glyph horiz-adv-x="1024" />
<glyph unicode="&#x20;" horiz-adv-x="512" d="" />
<glyph unicode="&#xe900;" glyph-name="envelope-o" d="M950.857 91.428v438.857c-12-13.714-25.143-26.286-39.429-37.714-81.714-62.857-164-126.857-243.429-193.143-42.857-36-96-80-155.429-80h-1.143c-59.429 0-112.571 44-155.429 80-79.429 66.286-161.714 130.286-243.429 193.143-14.286 11.429-27.429 24-39.429 37.714v-438.857c0-9.714 8.571-18.286 18.286-18.286h841.143c9.714 0 18.286 8.571 18.286 18.286zM950.857 692c0 14.286 3.429 39.429-18.286 39.429h-841.143c-9.714 0-18.286-8.571-18.286-18.286 0-65.143 32.571-121.714 84-162.286 76.571-60 153.143-120.571 229.143-181.143 30.286-24.571 85.143-77.143 125.143-77.143h1.143c40 0 94.857 52.571 125.143 77.143 76 60.571 152.571 121.143 229.143 181.143 37.143 29.143 84 92.571 84 141.143zM1024 713.143v-621.714c0-50.286-41.143-91.429-91.429-91.429h-841.143c-50.286 0-91.429 41.143-91.429 91.429v621.714c0 50.286 41.143 91.429 91.429 91.429h841.143c50.286 0 91.429-41.143 91.429-91.429z" />
<glyph unicode="&#xe901;" glyph-name="weibo" d="M385.728 226.272q12 19.424 6.272 39.424t-25.728 28.576q-19.424 8-41.728 0.576t-34.272-26.272q-12.576-19.424-7.424-39.136t24.576-28.864 42.56-1.44 35.712 27.136zM439.424 295.424q4.576 7.424 2.016 15.136t-10.016 10.56q-8 2.848-16.288-0.288t-12.288-10.56q-9.728-17.728 7.424-25.728 8-2.848 16.576 0.288t12.576 10.56zM538.848 234.272q-25.728-58.272-90.272-85.728t-128-6.848q-61.152 19.424-84.288 72.288t3.712 107.136q26.848 53.152 86.56 79.424t120.288 10.848q63.424-16.576 90.56-68.288t1.44-108.864zM717.152 325.728q-5.152 54.848-50.848 97.152t-119.136 62.272-156.864 12q-127.424-13.152-211.136-80.864t-75.712-151.136q5.152-54.848 50.848-97.152t119.136-62.272 156.864-12q127.424 13.152 211.136 80.864t75.712 151.136zM893.152 323.424q0-38.848-21.152-79.712t-62.272-78.272-96.288-67.136-129.152-47.424-154.56-17.728-157.152 19.136-137.44 53.152-98.016 86.272-37.152 114.016q0 65.728 39.712 140t112.864 147.424q96.576 96.576 195.136 134.848t140.864-4q37.152-36.576 11.424-119.424-2.272-8-0.576-11.424t5.728-4 8.288 0.288 7.712 2.016l3.424 1.152q79.424 33.728 140.576 33.728t87.424-34.848q25.728-36 0-101.728-1.152-7.424-2.56-11.424t2.56-7.136 6.848-4.288 9.728-3.424q32.576-10.272 58.848-26.848t45.728-46.56 19.424-66.56zM850.848 680q24-26.848 31.136-62.016t-3.712-67.136q-4.576-13.152-16.864-19.424t-25.44-2.272q-13.152 4.576-19.424 16.864t-2.272 25.44q11.424 36-13.728 63.424t-61.152 20q-13.728-2.848-25.728 4.576t-14.272 21.152q-2.848 13.728 4.576 25.44t21.152 14.56q34.272 7.424 68-3.136t57.728-37.44zM954.272 773.152q49.728-54.848 64.288-127.136t-7.712-138.016q-5.152-15.424-19.424-22.848t-29.728-2.272-22.848 19.424-2.848 29.728q16 46.848 5.728 98.272t-45.728 90.272q-35.424 39.424-84.576 54.56t-98.848 4.864q-16-3.424-29.728 5.44t-17.152 24.864 5.44 29.44 24.864 16.864q70.272 14.848 139.424-6.56t118.848-76.864z" />
<glyph unicode="&#xe902;" glyph-name="wechat" d="M664.25 591.458c10.015 0 19.892-0.733 29.673-1.796-26.648 122.81-159.358 214.078-310.826 214.078-169.353 0-308.086-114.233-308.086-259.274 0-83.708 46.165-152.46 123.282-205.785l-30.809-91.73 107.689 53.455c38.558-7.537 69.46-15.309 107.924-15.309 9.663 0 19.231 0.471 28.753 1.226-6.025 20.366-9.522 41.723-9.522 63.862 0.001 133.181 115.58 241.272 261.922 241.272zM498.629 674.126c23.2 0 38.557-15.12 38.557-38.062 0-22.846-15.357-38.156-38.557-38.156-23.107 0-46.261 15.31-46.261 38.156 0 22.942 23.154 38.062 46.261 38.062zM283.016 597.909c-23.107 0-46.403 15.31-46.403 38.156 0 22.942 23.296 38.062 46.403 38.062 23.082 0 38.463-15.12 38.463-38.062 0-22.847-15.381-38.156-38.463-38.156zM945.448 353.849c0 121.888-123.258 221.237-261.684 221.237-146.578 0-262.016-99.349-262.016-221.237 0-122.065 115.437-221.201 262.016-221.201 30.666 0 61.617 7.609 92.424 15.263l84.514-45.787-23.179 76.171c61.856 45.929 107.925 106.803 107.925 175.554zM598.803 392.006c-15.332 0-30.808 15.097-30.808 30.502 0 15.191 15.475 30.477 30.808 30.477 23.296 0 38.558-15.286 38.558-30.477 0-15.405-15.263-30.502-38.558-30.502zM768.251 392.006c-15.213 0-30.595 15.097-30.595 30.502 0 15.191 15.381 30.477 30.595 30.477 23.107 0 38.558-15.286 38.558-30.477 0-15.405-15.451-30.502-38.558-30.502z" />
<glyph unicode="&#xe903;" glyph-name="user" d="M501.434 960c-141.386 0-256-114.614-256-256s114.614-256 256-256 256 114.614 256 256-114.616 256-256 256zM503.228 499.2c-113.107 0-204.8 91.693-204.8 204.8 0 113.109 91.693 204.8 204.8 204.8s204.8-91.691 204.8-204.8c0-113.107-91.693-204.8-204.8-204.8zM76.818 9.202c0.61 239.833 195.207 434.067 435.182 434.067s434.571-194.236 435.182-434.067h52.789c-0.61 268.986-218.841 486.857-487.971 486.857s-487.361-217.87-487.971-486.857h52.789z" />
<glyph unicode="&#xe904;" glyph-name="up" d="M504.962 631.731q-102.937-102.937-412.627-412.627-6.159-6.159-13.197-6.159t-12.317 6.159q-6.159 6.159-6.159 12.317t6.159 13.197q144.287 144.287 431.983 431.983 6.159 6.159 13.197 6.159 6.159 0 12.317-6.159 0.88-0.88 1.76-1.76 107.336-107.336 431.103-430.223 6.159-6.159 6.159-12.317 0-7.038-6.159-13.197t-13.197-6.159q-6.159 0-12.317 6.159-138.129 137.249-414.387 412.627-6.159 6.159-12.317 0z" />
<glyph unicode="&#xe906;" glyph-name="tag" d="M329.143 704q0 30.281-21.431 51.712t-51.712 21.431-51.712-21.431-21.431-51.712 21.431-51.712 51.712-21.431 51.712 21.431 21.431 51.712zM938.862 374.857q0-30.281-21.138-51.419l-280.576-281.161q-22.309-21.138-52.005-21.138-30.281 0-51.419 21.138l-408.576 409.161q-21.723 21.138-36.864 57.71t-15.141 66.853v237.714q0 29.696 21.723 51.419t51.419 21.723h237.714q30.281 0 66.853-15.141t58.295-36.864l408.576-407.991q21.138-22.309 21.138-52.005z" />
<glyph unicode="&#xe90a;" glyph-name="search" d="M950.149 51.803l-270.272 271.924c50.381 60.328 80.712 137.98 80.712 222.725 0 192.032-155.672 347.704-347.719 347.704-192.032 0-347.704-155.671-347.704-347.704s155.673-347.704 347.704-347.704c87.265 0 167.016 32.148 228.067 85.239l269.864-271.526c10.864-10.865 28.482-10.865 39.348 0 10.853 10.866 10.853 28.476 0 39.342zM412.87 253.921c-161.554 0-292.531 130.971-292.531 292.533 0 161.56 130.977 292.534 292.531 292.534 161.58 0 292.56-130.973 292.56-292.534s-130.981-292.533-292.56-292.533z" />
<glyph unicode="&#xe90b;" glyph-name="right" d="M673.714 464.781q-85.098 85.098-341.118 341.118-5.091 5.819-5.091 10.91t5.091 10.183 10.183 5.091 10.91-5.091q119.282-119.282 357.119-357.119 5.091-5.091 5.091-10.91 0-5.091-5.091-10.183-0.727-0.727-1.455-1.455-88.734-88.734-355.665-354.937-5.819-5.091-10.91-5.091t-10.183 5.091-5.091 10.183 5.091 10.91q113.464 113.464 341.118 341.118 5.091 5.091 0 10.183z" />
<glyph unicode="&#xe90d;" glyph-name="qq" d="M866.991 252.228c0 0-25.341-69.55-71.877-132.071 0 0 83.050-28.439 76.137-102.196 0 0 2.709-82.331-177.613-76.685 0 0-126.817 9.898-164.88 63.85h-33.53c-38.018-54.006-164.834-63.85-164.834-63.85-180.431-5.7-177.556 76.685-177.556 76.685-7.025 73.756 76.081 102.196 76.081 102.196-46.475 62.519-71.875 132.071-71.875 132.071-112.759-183.141-101.477 25.567-101.477 25.567 21.141 123.495 109.949 204.384 109.949 204.384-12.677 112.157 33.805 132.078 33.805 132.078 9.68 346.979 306.473 340.887 312.675 340.722 6.249 0.163 302.931 6.256 312.72-340.723 0 0 46.538-19.866 33.812-132.078 0 0 88.751-80.89 109.886-204.384 0.055 0.001 11.285-208.707-101.421-25.566v0 0z" />
<glyph unicode="&#xe90f;" glyph-name="picture" d="M0 813.227v-730.453h1024v730.453h-1024zM986.453 120.32h-948.907v81.92l303.787 310.613 293.547-293.547 184.32 187.733 167.253-167.253v-119.467zM986.453 290.987l-167.253 167.253-20.48-20.48-167.253-170.667-290.133 296.96-27.307-27.307-276.48-283.307v522.24h952.32v-484.693zM665.6 465.067v0c58.027 0 102.4 44.373 102.4 98.987v3.413c0 54.613-44.373 98.987-98.987 98.987h-3.413c-54.613 0-98.987-44.373-98.987-98.987v-3.413c0-54.613 44.373-98.987 98.987-98.987zM604.16 567.467c0 34.133 27.307 61.44 61.44 61.44h3.413c34.133 0 61.44-27.307 61.44-61.44v-3.413c0-34.133-27.307-61.44-61.44-61.44h-3.413c-34.133 0-61.44 27.307-61.44 64.853v0z" />
<glyph unicode="&#xe912;" glyph-name="markdown" d="M895.318 768h-766.636c-35.674 0-64.682-28.968-64.682-64.616v-510.698c0-35.672 29.008-64.686 64.682-64.686h766.636c35.674 0 64.682 29.014 64.682 64.688v510.696c0 35.648-29.008 64.616-64.682 64.616zM568.046 256h-112.096v192l-84.080-107.756-84.044 107.756v-192h-112.088v384h112.088l84.044-135.96 84.080 135.96h112.096v-384zM735.36 256l-139.27 192h84v192h112.086v-192h84.054l-140.87-192z" />
<glyph unicode="&#xe913;" glyph-name="left" d="M359.261 464.781q85.098 85.098 341.118 341.118 5.091 5.819 5.091 10.91t-5.091 10.183-10.183 5.091-10.91-5.091q-119.282-118.555-357.119-356.392-5.091-5.091-5.091-10.183 0-5.819 5.091-10.91 0.727 0 1.455-0.727 88.734-89.462 355.665-356.392 5.819-5.091 10.91-5.091t10.183 5.091q5.091 4.364 5.091 10.183t-5.091 10.91q-113.464 113.464-341.118 341.118-1.455 2.182-1.455 5.091t1.455 5.091z" />
<glyph unicode="&#xe915;" glyph-name="home" d="M955.541 438.396c-2.496-3.162-6.212-4.703-10.096-4.618v0h-105.419v-418.273c0-8.21-6.659-14.952-14.926-14.952h-209.338c-8.238 0-14.924 6.742-14.924 14.952v298.693h-179.432v-298.693c0-8.21-6.686-14.952-14.925-14.952h-209.338c-4.107 0-7.851 1.719-10.542 4.439-2.717 2.689-4.382 6.437-4.382 10.512v418.272l-104.726 0.027c-3.8 0.029-7.629 1.582-10.569 4.592-5.715 5.964-5.826 15.3 0 21.139l433.739 432.767c5.852 5.839 15.314 5.839 21.165 0l433.712-432.767c5.853-5.839 5.105-14.633 0-21.138zM511.234 860.664l-397.397-396.566 83.307 0.056v-0.597c2.081 0 4.050-0.416 5.827-1.151 5.381-2.288 9.153-7.587 9.153-13.773v-418.176h179.377v298.664c0 8.267 6.714 14.94 14.98 14.94h209.281c8.267 0 14.983-6.673 14.983-14.94v-298.664h179.404v418.176c0 6.186 3.744 11.486 9.127 13.773 1.773 0.735 3.774 1.151 5.823 1.151v1.067l82.948 0.083-396.815 395.956z" />
<glyph unicode="&#xe916;" glyph-name="folder" d="M960.976 687.935v61.153c0 33.79-27.496 61.276-61.286 61.276h-529.868c-0.819 0.43-3.5 2.149-8.258 8.135-4.912 6.171-9.916 14.152-15.206 22.605-15.687 25.010-31.907 50.879-58.809 50.879h-224.462c-33.779 0-61.276-27.486-61.276-61.276v-693.802c0-0.338 0.010-0.686 0.031-1.023 0.010-0.246 0.031-0.501 0.051-0.767 0.020-0.225 0.041-0.45 0.072-0.675 0.010-0.113 0.031-0.225 0.051-0.348 0.010-0.174 0.041-0.338 0.072-0.512 0.051-0.276 0.102-0.553 0.153-0.819 0.041-0.225 0.092-0.46 0.153-0.686 0.174-0.686 0.368-1.351 0.604-2.016 0.102-0.266 0.205-0.532 0.307-0.798 0.082-0.205 0.174-0.409 0.256-0.614 0.051-0.092 0.092-0.194 0.133-0.297 0.102-0.215 0.215-0.44 0.327-0.655 0.174-0.348 0.368-0.696 0.573-1.044 0.082-0.153 0.174-0.307 0.266-0.45 0.849-1.381 1.862-2.661 3.019-3.807 0.164-0.164 0.327-0.327 0.501-0.481 0.287-0.266 0.583-0.522 0.88-0.767 0.256-0.205 0.512-0.409 0.778-0.614 0.266-0.194 0.532-0.389 0.798-0.563 0.266-0.184 0.532-0.358 0.808-0.522 0.317-0.194 0.645-0.379 0.982-0.553 0.184-0.113 0.379-0.205 0.573-0.307 0.205-0.092 0.409-0.194 0.604-0.287 0.010 0 0.020 0 0.020 0 0.266-0.123 0.542-0.246 0.819-0.348 0.553-0.225 1.115-0.43 1.699-0.604 0.573-0.174 1.167-0.327 1.77-0.45 0.757-0.153 1.504-0.266 2.251-0.338 0.624-0.061 1.248-0.092 1.873-0.092h0.061c0.348 0 0.686 0.010 1.034 0.031 0.246 0 0.491 0.020 0.737 0.051 0.246 0.020 0.501 0.041 0.747 0.082 0.082 0 0.164 0.010 0.235 0.031 0.215 0.020 0.43 0.051 0.645 0.092 0.266 0.041 0.522 0.092 0.778 0.143 0.194 0.041 0.389 0.082 0.583 0.143 0.716 0.164 1.412 0.368 2.098 0.614 0.266 0.102 0.532 0.205 0.798 0.307 0.266 0.113 0.522 0.215 0.778 0.338 0.010 0 0.020 0 0.020 0 0.266 0.123 0.512 0.246 0.767 0.379 0.358 0.174 0.706 0.358 1.044 0.573 0.153 0.082 0.307 0.174 0.45 0.266 0.798 0.481 1.555 1.023 2.282 1.627 0.256 0.205 0.501 0.42 0.747 0.645 0.235 0.215 0.471 0.44 0.706 0.675s0.46 0.471 0.675 0.706c0.225 0.246 0.44 0.491 0.645 0.747s0.409 0.512 0.614 0.778c0.010 0.010 0.010 0.010 0.010 0.010 0.379 0.522 0.747 1.064 1.085 1.617 0.174 0.287 0.338 0.573 0.491 0.86 0.133 0.246 0.266 0.491 0.389 0.737 0.041 0.092 0.092 0.184 0.133 0.276 0.092 0.205 0.184 0.409 0.276 0.624 0.102 0.215 0.194 0.45 0.276 0.675 0.082 0.194 0.153 0.389 0.225 0.583 0.020 0.072 0.051 0.143 0.072 0.225 0.082 0.225 0.153 0.46 0.225 0.696 0.174 0.573 0.327 1.167 0.45 1.77l0.020 0.102 102.443 491.678v2.108c0 11.215 9.118 20.343 20.343 20.343h795.795c10.683 0 19.484-8.289 20.282-18.788l-101.625-548.768c-0.061-0.317-0.113-0.634-0.153-0.941-0.041-0.297-0.072-0.583-0.102-0.87-0.020-0.287-0.051-0.573-0.061-0.86-0.020-0.327-0.031-0.665-0.031-0.993v-0.082c-0.010-11.205-9.128-20.323-20.343-20.323h-596.035c-11.308 0-20.466-9.159-20.466-20.466 0-11.297 9.159-20.466 20.466-20.466h596.035c33.073 0 60.109 26.34 61.235 59.137v0.010l102.075 551.183v1.883c0 33.769-27.466 61.245-61.214 61.276zM920.043 687.935h-754.924c-33.012 0-60.017-26.238-61.235-58.963l-61.143-293.494v495.229c0 11.215 9.128 20.343 20.343 20.343h224.043c0.706-0.307 3.51-1.821 8.678-8.217 5.157-6.385 10.601-15.073 15.871-23.475 15.38-24.549 31.293-49.927 57.489-49.927h530.523c11.226 0 20.354-9.128 20.354-20.343v-61.153zM16.341 117.349c-0.573 0.174-1.146 0.368-1.699 0.604 0.553-0.225 1.115-0.43 1.699-0.604z" />
<glyph unicode="&#xe917;" glyph-name="file" d="M869.006 79.332h-703.336c-3.467 0.643-6.929 1.358-10.416 1.919-42.908 6.864-79.711 40.744-90.024 82.942-0.991 4.059-1.698 8.188-2.534 12.29v540.126c0.454 2.177 0.899 4.353 1.367 6.523 9.825 45.261 37.551 74.274 80.997 88.787 6.654 2.223 13.729 3.2 20.61 4.751h242.864c3.99-2.605 8.575-4.607 11.865-7.905 31.887-31.969 63.582-64.123 95.227-96.341 2.935-2.99 5.861-4.301 10.12-4.293 105.524 0.12 211.046 0.112 316.569 0.042 6.933-0.008 13.921-0.318 20.794-1.217 45.231-5.961 84.711-41.615 95.398-85.936 1.053-4.371 1.869-8.801 2.794-13.202v-433.275c-0.639-3.283-1.238-6.578-1.916-9.846-8.582-41.289-32.050-69.311-73.014-81.558-5.664-1.698-11.577-2.565-17.366-3.807v0zM516.617 122.874h337.070c2.588 0 5.181 0.005 7.774 0.078 11.299 0.295 21.698 3.587 30.825 10.192 18.267 13.229 25.568 31.783 25.568 53.806-0.021 136.48 0.012 272.952-0.095 409.434-0.004 5.432-0.532 11.050-1.938 16.282-8.158 30.495-37.551 52.245-70.284 52.25-110.417 0.031-220.833 0.063-331.24-0.090-8.711-0.013-15.503 2.716-21.578 8.916-31.621 32.253-63.402 64.345-95.252 96.366-1.602 1.607-4.384 2.889-6.614 2.893-71.395 0.15-142.794-0.197-214.188 0.262-35.033 0.221-71.059-31.486-70.862-71.173 0.839-170.477 0.355-340.953 0.355-511.429 0-1.462 0.018-2.914 0-4.371-0.111-14.576 4.979-27.26 14.427-38.131 15.152-17.408 34.499-25.341 57.499-25.327 112.841 0.090 225.69 0.042 338.534 0.042v0z" />
<glyph unicode="&#xe919;" glyph-name="edit" d="M840.268 430.722v-259.159c0-28.58-23.252-51.831-51.831-51.831h-552.874c-28.58 0-51.831 23.253-51.831 51.831v552.874c0 28.581 23.253 51.831 51.831 51.831h276.437v34.555c-141.106 0-276.437 0-276.437 0-47.71 0-86.386-38.675-86.386-86.386v-552.874c0-47.71 38.677-86.386 86.386-86.386h552.874c47.711 0 86.386 38.677 86.386 86.386 0 0 0 123.323 0 259.159l-0.344 0.36-34.211-0.36zM846.647 722.511l-354.401-354.401-60.608 60.608 354.401 354.401 60.608-60.608zM379.594 316.072l99.413 38.804-60.608 60.608zM862.172 798.172c-16.868 16.868-44.216 16.868-61.084 0l61.084-61.084c16.868 16.868 16.868 44.216 0 61.084z" />
<glyph unicode="&#xe91b;" glyph-name="download" d="M1022.955 437.429c0-100.192-81.517-181.698-181.719-181.698h-185.638c-11.297 0-20.466 9.169-20.466 20.466 0 11.308 9.169 20.466 20.466 20.466h185.638c77.628 0 140.786 63.148 140.786 140.766 0 77.423-62.841 140.449-140.203 140.766-0.42-0.031-0.819-0.051-1.218-0.061-5.945-0.143-11.686 2.292-15.687 6.703-4.001 4.4-5.894 10.335-5.168 16.25 1.33 10.806 1.944 19.76 1.944 28.192 0 60.764-23.659 117.885-66.617 160.833-42.969 42.969-100.090 66.617-160.843 66.617-47.369 0-92.742-14.449-131.208-41.782-37.617-26.739-65.952-63.701-81.926-106.884-2.425-6.539-8.012-11.4-14.828-12.894-6.815-1.484-13.927 0.604-18.86 5.546-19.289 19.33-44.944 29.973-72.245 29.973-56.323 0-102.146-45.813-102.146-102.126 0-0.317 0.041-0.982 0.092-1.627 0.061-0.921 0.123-1.832 0.153-2.763 0.338-9.466-5.864-17.928-15.002-20.456-32.357-8.933-61.542-28.55-82.182-55.218-21.305-27.517-32.572-60.508-32.572-95.413 0-86.244 70.189-156.423 156.443-156.423h169.981c11.297 0 20.466-9.159 20.466-20.466 0-11.297-9.169-20.466-20.466-20.466h-169.981c-108.829 0-197.375 88.536-197.375 197.355 0 44.053 14.224 85.712 41.127 120.474 22.809 29.461 53.898 52.086 88.71 64.816 5.065 74.323 67.149 133.245 142.751 133.245 28.387 0 55.504-8.217 78.651-23.526 19.658 39.868 48.842 74.169 85.497 100.212 45.435 32.296 99.005 49.354 154.918 49.354 71.693 0 139.088-27.916 189.782-78.6 50.695-50.695 78.61-118.090 78.61-189.782 0-3.704-0.102-7.47-0.297-11.369 90.307-10.479 160.628-87.421 160.628-180.481zM629.259 139.289l-102.024-102.013c-3.991-4.001-9.23-5.997-14.47-5.997s-10.479 1.995-14.47 5.997l-102.024 102.013c-7.992 7.992-7.992 20.947 0 28.939s20.947 8.002 28.939 0l67.088-67.078v358.7c0 11.297 9.159 20.466 20.466 20.466s20.466-9.169 20.466-20.466v-358.7l67.088 67.078c7.992 8.002 20.947 7.992 28.939 0s7.992-20.947 0-28.939z" />
<glyph unicode="&#xe91c;" glyph-name="classify" horiz-adv-x="1025" d="M962.218 960.012h-347.319c-34.411 0-62.403-27.992-62.403-62.436v-345.334c0-34.444 27.992-62.436 62.403-62.436h347.319c34.444 0 62.436 27.992 62.436 62.436v345.334c0 34.444-27.992 62.436-62.436 62.436v0zM966.618 598.432c0-27.595-22.466-50.061-50.061-50.061h-256.031c-27.595 0-50.061 22.466-50.061 50.061v254.244c0 27.595 22.466 50.061 50.061 50.061h256.031c27.595 0 50.061-22.466 50.061-50.061v-254.244zM410.649 406.194h-347.319c-34.444 0-62.436-27.992-62.436-62.436v-345.334c0-34.444 27.992-62.436 62.436-62.436h347.319c34.411 0 62.403 27.992 62.403 62.436v345.367c0.033 34.411-27.992 62.403-62.403 62.403v0zM415.016 44.614c0-27.595-22.433-50.061-50.061-50.061h-256.031c-27.595 0-50.061 22.466-50.061 50.061v254.277c0 27.595 22.433 50.061 50.061 50.061h256.031c27.595 0 50.061-22.466 50.061-50.061v-254.277zM62.436 488.913h347.319c34.411 0 62.436 27.992 62.436 62.436v345.334c0 34.444-27.992 62.436-62.436 62.436h-347.319c-34.411 0-62.436-28.025-62.436-62.436v-345.334c0-34.411 28.025-62.436 62.436-62.436v0zM57.969 851.816c0 27.595 22.466 50.028 50.061 50.028h256.031c27.595 0 50.061-22.433 50.061-50.028v-254.277c0-27.595-22.466-50.061-50.061-50.061h-256.031c-27.595 0-50.061 22.466-50.061 50.061v254.277zM1024.654 350.276c0-17.007-13.764-30.771-30.771-30.771h-410.616c-17.007 0-30.771 13.797-30.771 30.771v0c0 17.007 13.797 30.771 30.771 30.771h410.616c17.007 0 30.771-13.797 30.771-30.771v0 0zM1024.654 171.107c0-17.007-13.764-30.771-30.771-30.771h-410.616c-17.007 0-30.771 13.764-30.771 30.771v0c0 17.007 13.797 30.771 30.771 30.771h410.616c17.007 0 30.771-13.764 30.771-30.771v0 0zM1024.654-8.062c0-17.007-13.764-30.771-30.771-30.771h-410.616c-17.007 0-30.771 13.764-30.771 30.771v0c0 17.007 13.797 30.771 30.771 30.771h410.616c17.007 0.033 30.771-13.764 30.771-30.771v0 0z" />
<glyph unicode="&#xe91d;" glyph-name="category" d="M134.095 704c13.465 0 24.381 9.551 24.381 21.333s-10.916 21.333-24.381 21.333h-97.524c-13.465 0-24.381-9.551-24.381-21.333s10.916-21.333 24.381-21.333h97.524zM134.095 426.667c13.465 0 24.381 9.551 24.381 21.333s-10.916 21.333-24.381 21.333h-97.524c-13.465 0-24.381-9.551-24.381-21.333s10.916-21.333 24.381-21.333h97.524zM134.095 149.333c13.465 0 24.381 9.551 24.381 21.333s-10.916 21.333-24.381 21.333h-97.524c-13.465 0-24.381-9.551-24.381-21.333s10.916-21.333 24.381-21.333h97.524zM987.429 704c13.465 0 24.381 9.551 24.381 21.333s-10.916 21.333-24.381 21.333h-707.048c-13.465 0-24.381-9.551-24.381-21.333s10.916-21.333 24.381-21.333h707.048zM993.524 426.667c13.465 0 24.381 9.551 24.381 21.333s-10.916 21.333-24.381 21.333h-707.048c-13.465 0-24.381-9.551-24.381-21.333s10.916-21.333 24.381-21.333h707.048zM996.571 149.333c13.465 0 24.381 9.551 24.381 21.333s-10.916 21.333-24.381 21.333h-707.048c-13.465 0-24.381-9.551-24.381-21.333s10.916-21.333 24.381-21.333h707.048z" />
<glyph unicode="&#xe91e;" glyph-name="down" d="M508.017 199.2q-103.105 103.105-413.3 413.3-6.169 6.169-13.219 6.169t-12.337-6.169q-6.169-6.169-6.169-12.337t6.169-13.219q144.523-144.523 432.687-432.687 6.169-6.169 13.219-6.169 6.169 0 12.337 6.169 0.881 0.881 1.762 1.762 107.511 107.511 431.806 430.924 6.169 6.169 6.169 12.337 0 7.050-6.169 13.219t-13.219 6.169q-6.169 0-12.337-6.169-138.354-137.473-415.062-413.3-6.169-6.169-12.337 0z" />
<glyph unicode="&#xe91f;" glyph-name="delete" d="M980.151 646.18c-26.653 60.185-62.764 113.491-108.332 161.639-45.568 46.428-101.454 82.539-161.639 109.192-62.764 26.653-128.107 41.27-197.75 41.27-67.923 0-134.986-14.616-197.75-41.27-60.185-26.653-113.491-62.764-161.639-108.332-47.288-46.428-83.399-102.314-110.052-162.499-26.653-62.764-41.27-128.107-41.27-197.75 0-67.923 14.616-134.986 41.27-197.75 26.653-60.185 62.764-113.491 108.332-161.639 45.568-45.568 101.454-82.539 161.639-108.332 62.764-26.653 128.107-41.27 197.75-41.27 67.923 0 134.986 14.616 197.75 41.27 60.185 26.653 113.491 62.764 161.639 108.332 45.568 45.568 82.539 101.454 108.332 161.639 26.653 62.764 41.27 128.107 41.27 197.75 1.72 67.063-12.897 134.986-39.55 197.75zM738.552 189.636l-224.403 224.403-220.104-219.244-33.531 33.531 220.104 220.104-225.263 224.403 33.531 33.531 224.403-224.403 220.964 220.104 33.531-33.531-220.104-220.104 224.403-224.403-33.531-34.391z" />
<glyph unicode="&#xe920;" glyph-name="delete-o" d="M981.671 647.602c-25.782 60.159-62.737 116.021-109.146 162.43s-102.271 84.223-163.289 110.005c-125.475 53.284-272.435 53.284-397.91 0-60.159-25.782-116.021-62.737-162.43-109.146s-83.363-103.13-109.146-163.289c-25.782-62.737-39.533-129.772-39.533-200.244s13.751-137.507 39.533-200.244c25.782-60.159 62.737-116.021 109.146-162.43s102.271-83.363 162.43-109.146c62.737-25.782 130.631-39.533 200.244-39.533s134.928 13.751 200.244 39.533c60.159 25.782 116.021 62.737 162.43 109.146s83.363 102.271 109.146 162.43c25.782 62.737 39.533 130.631 39.533 200.244s-15.469 137.507-41.252 200.244zM936.982 266.021c-23.204-55.862-55.862-104.849-99.692-148.679-42.111-42.111-92.817-76.488-148.679-99.692-114.302-48.987-246.653-48.987-362.674 0-55.862 23.204-104.849 58.44-148.679 99.692-42.111 42.111-76.488 92.817-99.692 148.679-23.204 58.44-36.955 118.599-36.955 181.337s12.032 122.897 36.955 181.337c23.204 55.862 55.862 104.849 99.692 148.679 42.111 42.111 92.817 76.488 148.679 99.692 57.581 24.064 118.599 37.814 181.337 37.814s122.897-12.032 181.337-36.955c55.862-23.204 104.849-55.862 148.679-99.692 42.111-42.111 76.488-92.817 99.692-148.679 23.204-58.44 36.955-118.599 36.955-181.337 0.859-63.597-11.172-123.756-36.955-182.196zM753.926 659.634l-35.236 31.798-208.838-211.416-216.573 216.573-32.658-32.658 216.573-216.573-212.276-211.416 32.658-32.658 212.276 211.416 215.714-215.714 32.658 32.658-216.573 215.714z" />
<glyph unicode="&#xe923;" glyph-name="calendar-o" d="M744.571 409.143l-292.571-292.571q-5.714-5.143-13.143-5.143t-13.143 5.143l-164.571 164.571q-5.143 5.714-5.143 13.143t5.143 12.571l26.286 26.286q5.143 5.143 12.571 5.143t13.143-5.143l125.714-125.714 253.714 253.714q5.714 5.143 13.143 5.143t12.571-5.143l26.286-26.286q5.143-5.143 5.143-12.571t-5.143-13.143zM73.143 9.143h804.571v585.143h-804.571v-585.143zM292.571 704v164.571q0 8-5.143 13.143t-13.143 5.143h-36.571q-8 0-13.143-5.143t-5.143-13.143v-164.571q0-8 5.143-13.143t13.143-5.143h36.571q8 0 13.143 5.143t5.143 13.143zM731.429 704v164.571q0 8-5.143 13.143t-13.143 5.143h-36.571q-8 0-13.143-5.143t-5.143-13.143v-164.571q0-8 5.143-13.143t13.143-5.143h36.571q8 0 13.143 5.143t5.143 13.143zM950.857 740.571v-731.429q0-29.714-21.714-51.429t-51.429-21.714h-804.571q-29.714 0-51.429 21.714t-21.714 51.429v731.429q0 29.714 21.714 51.429t51.429 21.714h73.143v54.857q0 37.714 26.857 64.571t64.571 26.857h36.571q37.714 0 64.571-26.857t26.857-64.571v-54.857h219.429v54.857q0 37.714 26.857 64.571t64.571 26.857h36.571q37.714 0 64.571-26.857t26.857-64.571v-54.857h73.143q29.714 0 51.429-21.714t21.714-51.429z" />
<glyph unicode="&#xeab0;" glyph-name="github" d="M512.008 947.358c-282.738 0-512.008-229.218-512.008-511.998 0-226.214 146.704-418.132 350.136-485.836 25.586-4.738 34.992 11.11 34.992 24.632 0 12.204-0.48 52.542-0.696 95.324-142.448-30.976-172.504 60.41-172.504 60.41-23.282 59.176-56.848 74.916-56.848 74.916-46.452 31.778 3.51 31.124 3.51 31.124 51.4-3.61 78.476-52.766 78.476-52.766 45.672-78.27 119.776-55.64 149.004-42.558 4.588 33.086 17.852 55.68 32.506 68.464-113.73 12.942-233.276 56.85-233.276 253.032 0 55.898 20.004 101.574 52.76 137.428-5.316 12.9-22.854 64.972 4.952 135.5 0 0 43.006 13.752 140.84-52.49 40.836 11.348 84.636 17.036 128.154 17.234 43.502-0.198 87.336-5.886 128.256-17.234 97.734 66.244 140.656 52.49 140.656 52.49 27.872-70.528 10.35-122.6 5.036-135.5 32.82-35.856 52.694-81.532 52.694-137.428 0-196.654-119.778-239.95-233.79-252.624 18.364-15.89 34.724-47.046 34.724-94.812 0-68.508-0.596-123.644-0.596-140.508 0-13.628 9.222-29.594 35.172-24.566 203.322 67.776 349.842 259.626 349.842 485.768 0 282.78-229.234 511.998-511.992 511.998z" />
</font>
</defs>
</svg>
