<?xml version="1.0" standalone="no"?>
<!DOCTYPE svg PUBLIC "-//W3C//DTD SVG 20010904//EN"
 "http://www.w3.org/TR/2001/REC-SVG-20010904/DTD/svg10.dtd">
<svg version="1.0" xmlns="http://www.w3.org/2000/svg"
 width="128.000000pt" height="40.000000pt" viewBox="0 0 128.000000 40.000000"
 preserveAspectRatio="xMidYMid meet">

<g transform="translate(0.000000,40.000000) scale(0.100000,-0.100000)"
fill="#000000" stroke="none">
<path d="M177 360 c3 -11 10 -23 15 -26 5 -3 1 -12 -9 -20 -17 -14 -16 -15 7
-8 46 12 69 44 31 44 -10 0 -21 7 -25 15 -8 23 -25 18 -19 -5z"/>
<path d="M680 335 c0 -15 -6 -25 -14 -25 -8 0 -17 -4 -21 -9 -3 -6 3 -8 15 -6
48 9 33 -38 -23 -66 l-40 -21 7 26 c3 14 2 26 -3 26 -5 0 -9 12 -8 26 2 19 -4
29 -22 35 -20 8 -22 7 -16 -8 18 -45 17 -52 -8 -58 -17 -5 -29 -18 -36 -37
-16 -46 -13 -66 13 -92 12 -13 26 -31 29 -40 4 -9 13 -16 22 -16 11 0 15 12
17 50 2 72 2 74 13 82 6 4 22 8 37 8 15 0 30 5 33 10 3 6 11 10 18 10 6 0 -7
-18 -28 -40 -33 -34 -37 -42 -25 -51 8 -5 20 -13 26 -17 5 -4 20 -24 33 -45
12 -20 27 -35 32 -31 5 3 9 33 9 68 0 36 5 67 12 74 10 10 10 15 -2 23 -13 8
-12 11 4 24 29 22 6 43 -29 27 -34 -16 -33 2 3 35 18 17 23 27 14 30 -7 3 -19
11 -26 19 -22 21 -36 17 -36 -11z m-134 -152 c-11 -11 -19 6 -11 24 8 17 8 17
12 0 3 -10 2 -21 -1 -24z m173 -50 c0 -37 0 -38 -16 -15 -8 12 -23 22 -32 22
-13 1 -13 3 3 15 33 25 46 18 45 -22z"/>
<path d="M1038 313 c-3 -25 -7 -28 -39 -26 -32 2 -36 0 -32 -18 8 -29 19 -32
48 -13 24 16 25 16 25 -9 0 -14 -11 -39 -25 -55 -35 -42 -31 -46 18 -21 l42
21 -47 -45 c-64 -60 -63 -80 0 -23 l24 21 31 -38 c24 -28 40 -37 62 -37 31 0
75 24 75 41 0 14 -20 11 -36 -6 -24 -24 -58 -18 -90 16 l-29 31 50 44 c45 40
47 44 25 44 -14 0 -36 -9 -50 -20 -53 -41 -46 -17 11 37 32 31 59 60 59 65 0
11 -37 10 -60 -2 -13 -7 -21 -6 -30 5 -18 22 -28 18 -32 -12z m62 -24 c-7 -11
-14 -18 -17 -15 -8 8 5 36 17 36 7 0 7 -6 0 -21z"/>
<path d="M266 302 c-3 -6 8 -12 24 -14 19 -3 29 -1 27 6 -5 14 -43 20 -51 8z"/>
<path d="M210 276 c-6 -8 -26 -16 -43 -18 -27 -3 -29 -5 -13 -13 12 -5 26 -4
38 4 11 7 22 10 24 8 9 -8 -8 -36 -25 -42 -10 -3 -28 -17 -41 -30 -23 -24 -23
-26 -5 -39 17 -12 17 -14 -5 -44 -13 -18 -20 -37 -16 -47 8 -21 30 -15 34 10
3 10 0 15 -7 11 -15 -10 -14 17 1 32 17 17 41 15 34 -3 -14 -39 35 -93 73 -80
28 9 46 60 33 90 -13 29 -28 31 -54 8 -17 -15 -18 -15 -18 6 0 13 10 26 26 33
24 11 24 13 8 25 -14 10 -15 15 -4 28 10 12 9 16 -5 21 -12 5 -15 14 -11 30 7
27 -5 32 -24 10z m-9 -80 c-6 -7 -9 -20 -6 -28 7 -19 -24 -33 -39 -18 -6 6 -2
18 14 35 24 26 51 36 31 11z m73 -92 c4 -9 4 -19 1 -22 -7 -8 -35 19 -29 29 8
14 21 11 28 -7z m-19 -34 c3 -6 -1 -13 -10 -16 -19 -8 -30 0 -20 15 8 14 22
14 30 1z"/>
<path d="M50 242 c0 -5 7 -15 16 -22 12 -11 18 -10 32 5 16 17 16 17 -2 11
-10 -3 -25 -1 -32 5 -8 7 -14 7 -14 1z"/>
</g>
</svg>
